<svg xmlns="http://www.w3.org/2000/svg" width="121.315" height="24.073" viewBox="0 0 121.315 24.073">
  <g id="Group_1" data-name="Group 1" transform="translate(-1886.988 -1324.926)">
    <g id="Group_545" data-name="Group 545" transform="translate(1938.332 1325.878)">
      <path id="Path_107" data-name="Path 107" d="M2232.669,1350.554h-6.1a.459.459,0,0,1-.459-.459V1333.12a1.956,1.956,0,0,0-1.878-1.977,1.914,1.914,0,0,0-1.95,1.914V1351.4a1.914,1.914,0,0,0,1.383,1.838,1.378,1.378,0,0,0,.449.076h8.554a1.378,1.378,0,0,0,1.378-1.378h0A1.378,1.378,0,0,0,2232.669,1350.554Z" transform="translate(-2222.283 -1331.142)" fill="#dbdbdb"/>
      <rect id="Rectangle_305" data-name="Rectangle 305" width="4.699" height="4.699" rx="2.35" transform="translate(13.988 0)" fill="#dbdbdb"/>
      <path id="Path_108" data-name="Path 108" d="M2309.432,1397.254h-1.072a.459.459,0,0,1-.459-.459v-9a1.5,1.5,0,0,0-.259-.844,1.376,1.376,0,0,0-1.176-.662h-3.934a1.409,1.409,0,0,0-1.422,1.286,1.378,1.378,0,0,0,1.375,1.47h1.129a.459.459,0,0,1,.459.459v9c0,.021,0,.043,0,.064s0,.043,0,.064a1.378,1.378,0,0,0,1.378,1.378h3.981a1.378,1.378,0,0,0,1.378-1.378h0A1.378,1.378,0,0,0,2309.432,1397.254Z" transform="translate(-2289.036 -1377.842)" fill="#dbdbdb"/>
    </g>
    <path id="Path_109" data-name="Path 109" d="M2439.227,1350.179h-6.043a.459.459,0,0,1-.459-.459v-7.78a.46.46,0,0,1,.459-.459h4.937a1.41,1.41,0,0,0,1.422-1.286,1.378,1.378,0,0,0-1.375-1.47h-5.443v-4.742a.46.46,0,0,1,.459-.459h6a1.41,1.41,0,0,0,1.422-1.286,1.378,1.378,0,0,0-1.375-1.47h-14.155c-.024,0-.047,0-.071,0a1.473,1.473,0,0,0-1.485,1.187l-1.905,9.655a.459.459,0,0,1-.9.006l-1.988-9.439a1.762,1.762,0,0,0-1.393-1.367,1.377,1.377,0,0,0-.345-.045h-10.606a1.409,1.409,0,0,0-1.422,1.286,1.378,1.378,0,0,0,1.375,1.47h2.246a.459.459,0,0,1,.459.459v15.737a.459.459,0,0,1-.459.459h-6.833a.459.459,0,0,1-.459-.459v-16.975a1.955,1.955,0,0,0-1.878-1.977,1.914,1.914,0,0,0-1.95,1.914v18.341a1.914,1.914,0,0,0,1.914,1.914c.021,0,.042,0,.063,0s.042,0,.063,0h15.394a1.364,1.364,0,0,0,1.364-1.364v-.028a1.364,1.364,0,0,0-1.364-1.364h-1.566a.46.46,0,0,1-.459-.459v-15.737a.46.46,0,0,1,.459-.459h1.708a.459.459,0,0,1,.449.365l3.709,17.605a1.8,1.8,0,0,0,2.029,1.423,1.759,1.759,0,0,0,1.4-1.254,1.478,1.478,0,0,0,.051-.185l3.469-17.584a.459.459,0,0,1,.451-.37h1.848a.459.459,0,0,1,.459.459v17.041a1.912,1.912,0,0,0,1.912,1.911h0c.046,0,.091,0,.136-.007s.09.007.136.007h8.141a1.378,1.378,0,0,0,1.378-1.378h0A1.378,1.378,0,0,0,2439.227,1350.179Z" transform="translate(-432.301 -4.946)" fill="#e99415"/>
    <g id="Group_548" data-name="Group 548" transform="translate(1886.988 1324.926)">
      <g id="Group_546" data-name="Group 546" transform="translate(0 1.627)">
        <rect id="Rectangle_306" data-name="Rectangle 306" width="4.594" height="3.063" rx="1.531" transform="translate(0 17.941)" fill="#e99415"/>
        <rect id="Rectangle_307" data-name="Rectangle 307" width="4.594" height="2.603" rx="1.302" transform="translate(0 11.961)" fill="#e99415"/>
        <rect id="Rectangle_308" data-name="Rectangle 308" width="4.594" height="2.144" rx="1.072" transform="translate(0 5.98)" fill="#e99415"/>
        <rect id="Rectangle_309" data-name="Rectangle 309" width="4.594" height="1.684" rx="0.842" fill="#e99415"/>
      </g>
      <path id="Path_110" data-name="Path 110" d="M1966.214,1341.4l-7.083-3.4a1.162,1.162,0,0,1,0-2.074l7.083-3.4,1.739-.835v-3.427a3.333,3.333,0,0,0-3.333-3.333H1943.8a1.111,1.111,0,0,0-1.111,1.111v19.628a3.333,3.333,0,0,0,3.333,3.333h20.818a1.111,1.111,0,0,0,1.111-1.111v-5.65Z" transform="translate(-1934.16 -1324.926)" fill="#e99415"/>
      <g id="Group_547" data-name="Group 547" transform="translate(23.643 2.938)">
        <path id="Path_111" data-name="Path 111" d="M2059.81,1363.7a1.621,1.621,0,0,1-.7-.161l-14.765-7.093a1.717,1.717,0,0,1,0-3.076l14.764-7.093a1.615,1.615,0,0,1,1.567.09,1.7,1.7,0,0,1,.791,1.448V1362a1.7,1.7,0,0,1-.79,1.448A1.619,1.619,0,0,1,2059.81,1363.7Zm0-16.474a.509.509,0,0,0-.222.052l-14.764,7.093a.606.606,0,0,0,0,1.073l14.765,7.093a.5.5,0,0,0,.494-.029.591.591,0,0,0,.271-.507v-14.186a.593.593,0,0,0-.271-.508A.52.52,0,0,0,2059.81,1347.223Z" transform="translate(-2043.083 -1345.806)" fill="#e99415"/>
        <path id="Path_112" data-name="Path 112" d="M2058.117,1362.308a1.916,1.916,0,0,1-.835-.191l-14.765-7.093a2.024,2.024,0,0,1,0-3.628l14.764-7.093a1.92,1.92,0,0,1,1.863.107,2,2,0,0,1,.934,1.707V1360.3a2,2,0,0,1-.933,1.707A1.931,1.931,0,0,1,2058.117,1362.308Zm0-17.583a1.314,1.314,0,0,0-.57.131l-14.764,7.093a1.411,1.411,0,0,0,0,2.524l14.765,7.093a1.323,1.323,0,0,0,1.271-.073,1.392,1.392,0,0,0,.647-1.189v-14.186a1.392,1.392,0,0,0-.647-1.189A1.315,1.315,0,0,0,2058.116,1344.724Zm0,16.473a.816.816,0,0,1-.355-.083L2043,1354.022a.913.913,0,0,1,0-1.625l14.764-7.093a.8.8,0,0,1,.79.046.9.9,0,0,1,.414.767V1360.3a.9.9,0,0,1-.414.767A.816.816,0,0,1,2058.117,1361.2Zm0-15.363a.2.2,0,0,0-.089.022l-14.764,7.093a.3.3,0,0,0,0,.521l14.765,7.093a.193.193,0,0,0,.2-.012.288.288,0,0,0,.127-.248v-14.186a.288.288,0,0,0-.128-.249A.209.209,0,0,0,2058.116,1345.834Z" transform="translate(-2041.39 -1344.111)" fill="#e99415"/>
      </g>
    </g>
  </g>
</svg>
